<svg width="23" height="18" viewBox="0 0 23 18" fill="none" xmlns="http://www.w3.org/2000/svg">
<path d="M1 16.4695V14.56C1.46103 14.5608 1.92209 14.5601 2.38309 14.564C2.4493 14.5646 2.4789 14.545 2.50347 14.4831C4.131 10.3869 5.76033 6.29143 7.3896 2.19593C7.4138 2.13516 7.43913 2.07478 7.4698 2C8.87113 4.45252 10.2646 6.8911 11.6666 9.34468C13.0748 6.89037 14.4737 4.45206 15.8797 2.00146C15.9 2.04862 15.9147 2.08063 15.9277 2.11337C17.324 5.63532 18.7202 9.15733 20.1163 12.6793C20.3557 13.283 20.5949 13.8867 20.8341 14.4904C20.8493 14.5288 20.8589 14.5642 20.917 14.5638C21.3891 14.5605 21.8612 14.5608 22.3333 14.56V16.4695C22.2947 16.4674 22.2561 16.4635 22.2175 16.4635C19.7844 16.4632 17.3513 16.4632 14.9182 16.4632H14.7988V14.5635H15.9208C15.5551 13.5157 15.1933 12.4792 14.8248 11.4234C13.7674 13.1548 12.7201 14.8697 11.6666 16.5947C10.6115 14.8671 9.565 13.1534 8.50847 11.4234C8.14 12.4791 7.7782 13.5157 7.41247 14.5635H8.53453V16.4632H8.4152C5.98207 16.4632 3.549 16.4632 1.11588 16.4635C1.07725 16.4635 1.03863 16.4674 1 16.4695Z" stroke="black"/>
</svg>
