<svg width="15" height="15" viewBox="0 0 15 15" fill="none" xmlns="http://www.w3.org/2000/svg">
<path fill-rule="evenodd" clip-rule="evenodd" d="M11.6749 8.60579L14.0671 10.9375C14.5617 11.4196 14.5617 12.2041 14.0671 12.6863L13.469 13.2692C12.4866 14.2267 10.4222 14.1654 9.04857 13.9068C7.79887 13.6716 5.39051 12.973 3.30222 10.9375C1.2097 8.89786 0.460247 6.5312 0.199743 5.30198C-0.209005 3.37326 0.0192959 1.70506 0.795564 0.948441L1.39356 0.36551C1.88814 -0.116601 2.69303 -0.116656 3.1877 0.36551L5.57987 2.69723C6.07454 3.1794 6.07454 3.96389 5.57987 4.44603L4.98182 5.02896C4.48715 5.51112 4.48715 6.29558 4.98182 6.77775L7.48653 9.18682C7.98312 9.67086 8.78793 9.67091 9.28266 9.18874L9.88073 8.60579C10.3766 8.12244 11.1791 8.12252 11.6749 8.60579ZM2.58974 0.948441C2.4248 0.787701 2.15657 0.787728 1.99166 0.948441L1.6941 1.23848L4.68441 4.15313L4.98194 3.86312C5.14685 3.70238 5.14685 3.44091 4.98194 3.28016L2.58974 0.948441ZM9.20897 13.0974C8.05427 12.8801 5.82915 12.2347 3.90027 10.3546C1.96355 8.46676 1.26942 6.27417 1.02804 5.13522C0.708287 3.62655 0.841416 2.49249 1.15189 1.8758L4.11611 4.76512C3.57212 5.56511 3.66151 6.65665 4.3858 7.36261L6.89052 9.77168C7.61273 10.4756 8.73193 10.5633 9.55337 10.0326L12.52 12.9243C11.616 13.3711 10.2101 13.2858 9.20897 13.0974ZM13.1715 12.3934L13.469 12.1033C13.6339 11.9427 13.6339 11.6812 13.469 11.5205L11.0768 9.18874C10.9115 9.02765 10.644 9.02765 10.4788 9.18874L10.1812 9.47875L13.1715 12.3934ZM8.87217 0.0042401C8.66727 0.0042401 8.50116 0.162698 8.50116 0.358163C8.50116 0.553627 8.66727 0.712086 8.87217 0.712086C11.5316 0.712086 13.6953 2.77612 13.6953 5.31315C13.6953 5.50862 13.8614 5.66707 14.0663 5.66707C14.2712 5.66707 14.4373 5.50862 14.4373 5.31315C14.4373 2.38581 11.9408 0.0042401 8.87217 0.0042401ZM8.50116 2.18575C8.50116 2.00978 8.6527 1.86713 8.83962 1.86713C10.8925 1.86713 12.5627 3.43942 12.5627 5.37203C12.5627 5.548 12.4112 5.69065 12.2243 5.69065C12.0373 5.69065 11.8858 5.548 11.8858 5.37203C11.8858 3.79081 10.5193 2.50437 8.83962 2.50437C8.6527 2.50437 8.50116 2.36172 8.50116 2.18575ZM8.77454 3.73002C8.62356 3.73002 8.50116 3.84228 8.50116 3.98076C8.50116 4.11924 8.62356 4.23151 8.77454 4.23151C9.52826 4.23151 10.1414 4.79392 10.1414 5.48524C10.1414 5.62373 10.2638 5.73599 10.4148 5.73599C10.5658 5.73599 10.6882 5.62373 10.6882 5.48524C10.6882 4.51741 9.82973 3.73002 8.77454 3.73002ZM8.50116 5.65944C8.50116 5.62269 8.53614 5.5929 8.57929 5.5929C8.70853 5.5929 8.81367 5.68244 8.81366 5.7925C8.81366 5.82924 8.77869 5.85903 8.73554 5.85903C8.69239 5.85903 8.65741 5.82924 8.65741 5.7925C8.65741 5.75581 8.62237 5.72597 8.57929 5.72597C8.53614 5.72597 8.50116 5.69618 8.50116 5.65944Z" fill="#121212"/>
</svg>
