<svg width="14" height="13" viewBox="0 0 14 13" fill="none" xmlns="http://www.w3.org/2000/svg">
<path d="M13.1922 0.980735C13.0535 0.86319 12.8855 0.785428 12.7061 0.755715C12.5267 0.726002 12.3426 0.745447 12.1734 0.811985L0.635924 5.34324C0.433558 5.42034 0.262147 5.56182 0.148084 5.7459C0.034021 5.92998 -0.0163685 6.14645 0.00467422 6.36199C0.0234477 6.57743 0.111559 6.78099 0.255794 6.94212C0.40003 7.10326 0.592616 7.2133 0.804674 7.25574L3.73592 7.83699V11.4995C3.73582 11.6976 3.79458 11.8913 3.90474 12.056C4.0149 12.2207 4.1715 12.3489 4.35467 12.4245C4.4759 12.4733 4.60525 12.4987 4.73592 12.4995C4.86726 12.4999 4.99738 12.4742 5.11865 12.4238C5.23992 12.3733 5.3499 12.2992 5.44217 12.2057L7.06717 10.587L9.52343 12.7495C9.70476 12.9094 9.9379 12.9982 10.1797 12.9995C10.286 13.0017 10.3918 12.9847 10.4922 12.9495C10.6571 12.8973 10.8056 12.803 10.9228 12.6758C11.0401 12.5487 11.1222 12.3931 11.1609 12.2245L13.5109 1.96199C13.552 1.7849 13.544 1.59997 13.4879 1.42708C13.4317 1.25419 13.3295 1.09987 13.1922 0.980735ZM4.11717 6.89324L1.00467 6.27449L9.72967 2.84324L4.11717 6.89324ZM4.73592 11.4995V8.53699L6.31092 9.92449L4.73592 11.4995ZM10.1859 11.9995L5.03592 7.46824L12.4547 2.11199L10.1859 11.9995Z" fill="black"/>
</svg>
