<svg width="15" height="15" viewBox="0 0 15 15" fill="none" xmlns="http://www.w3.org/2000/svg">
<path fill-rule="evenodd" clip-rule="evenodd" d="M5.18312 0.546875H10.5193C12.9748 0.546875 14.9661 2.53815 14.9661 4.99367V10.3298C14.9661 12.7853 12.9748 14.7766 10.5193 14.7766H5.18312C2.7276 14.7766 0.736328 12.7853 0.736328 10.3298V4.99367C0.736328 2.53815 2.7276 0.546875 5.18312 0.546875ZM10.5192 13.4425C12.2356 13.4425 13.6319 12.0462 13.6319 10.3298V4.99361C13.6319 3.27715 12.2356 1.88086 10.5192 1.88086H5.18302C3.46656 1.88086 2.07027 3.27715 2.07027 4.99361V10.3298C2.07027 12.0462 3.46656 13.4425 5.18302 13.4425H10.5192ZM4.2207 7.66128C4.2207 5.6566 5.84605 4.03125 7.85074 4.03125C9.85542 4.03125 11.4808 5.6566 11.4808 7.66128C11.4808 9.66597 9.85542 11.2913 7.85074 11.2913C5.84605 11.2913 4.2207 9.66597 4.2207 7.66128ZM5.58191 7.66135C5.58191 8.9119 6.60014 9.93012 7.85069 9.93012C9.10123 9.93012 10.1195 8.9119 10.1195 7.66135C10.1195 6.40989 9.10123 5.39258 7.85069 5.39258C6.60014 5.39258 5.58191 6.40989 5.58191 7.66135ZM11.626 4.32238C11.8666 4.32238 12.0616 4.12735 12.0616 3.88678C12.0616 3.6462 11.8666 3.45117 11.626 3.45117C11.3855 3.45117 11.1904 3.6462 11.1904 3.88678C11.1904 4.12735 11.3855 4.32238 11.626 4.32238Z" fill="#121212"/>
</svg>
